<svg id="Group_4-2" data-name="Group 4-2" xmlns="http://www.w3.org/2000/svg" xmlns:xlink="http://www.w3.org/1999/xlink" width="156.104" height="35.288" viewBox="0 0 156.104 35.288">
  <defs>
    <radialGradient id="radial-gradient" cx="0" cy="0" r="1.051" gradientTransform="scale(1.142 0.951)" gradientUnits="objectBoundingBox">
      <stop offset="0" stop-color="#01d463"/>
      <stop offset="1" stop-color="#1985c7"/>
    </radialGradient>
  </defs>
  <path id="Union_150-2" data-name="Union 150-2" d="M488.978,174.626a1.1,1.1,0,1,1,0-2.21h15.444a1.1,1.1,0,1,1,0,2.21Zm22.064-4.432H482.355a1.1,1.1,0,0,1-1.1-1.1V147.024a1.1,1.1,0,0,1,1.1-1.1h13.238a1.105,1.105,0,1,1,0,2.21H483.459v19.853h26.479V153.645a1.1,1.1,0,1,1,2.207,0h0v15.446a1.1,1.1,0,0,1-1.1,1.1Zm-21.76-3.431v-.026h0c1.07-1.381,1.8-2.41,1.8-2.412.622-1.058-.4-1.081-1.19-2.142-1.057-1.412-.663-3.126.681-4.911a9.619,9.619,0,0,0,1.477-3.327c-.252,1.428-.539,3.86.177,4.781a4.731,4.731,0,0,1,1.18,2.653c.756-.487.995-1.31.677-1.714a5.978,5.978,0,0,1-1.46-3.144,4.133,4.133,0,0,1,1.144-3.375c.71-.852.825-1.21,1.637-3.651-.862,2.8-.277,4.078.378,5.1.71,1.1,1.184,1.527.886,2.656.762-.691,1.264-1.6.688-2.393a4.4,4.4,0,0,1-.278-6.017,12.078,12.078,0,0,0,1.844-4.361c-.886,4.3-.434,4.886.243,5.859a3.405,3.405,0,0,1,.763,3.212c.533-.939,1.116-1.3-.322-4.546s.974-3.59,2.544-8.639c-.72,2.374-.545,4.182.243,5.376a6.227,6.227,0,0,1,.9,1.688s1.188-2.707,3.839-8.094a106.683,106.683,0,0,1-4.371,11.6s.836-.331,8.432-7.816a70.547,70.547,0,0,1-8.1,8.9c.164-.085,4.07-1.978,9.046-4.5a76.989,76.989,0,0,1-7.658,5.021,3.6,3.6,0,0,1,1.815.04c1.652.349,4.2-.872,4.666-1.1a20.386,20.386,0,0,0-4.2,3.085c-2.117,2.029-3.4,1.292-5.129.687-1.71-.6-2.884,1.6-2.913,1.656a.946.946,0,0,1,.334-.29c.422-.245,1.319-.492,3.086-.036,2.815.725,3.217-.2,5.445-1.071-1.8.969-2.034,1.343-4.233,3.3s-3.341,1.452-5.1.811-2.59,1.349-2.59,1.349.658-.609,3.475-.039,3.449-.747,5.655-1.341c-1.758.822-2.006.954-4.638,3.456s-4.292,1.141-5.845.746a1.558,1.558,0,0,0-1.6.536c-.05.055-1.559,1.847-2.5,3.089a1.264,1.264,0,0,1-.216.021h-.008a.694.694,0,0,1-.694-.685Zm12.907-26.49-.034.107Z" transform="translate(-481.252 -139.338)" fill="url(#radial-gradient)"/>
  <g id="AGRO-2" transform="translate(34.455 13.34)">
    <g id="Group_1-2" data-name="Group 1-2">
      <path id="Path_1-2" data-name="Path 1-2" d="M573.982,185.469l-1.133,2.492h-2.7l5.927-13.213H578.8l5.928,13.213H582l-1.116-2.492Zm1-2.322h4.908l-2.455-5.625Z" transform="translate(-570.15 -174.364)" fill="#1985c7"/>
      <path id="Path_2-2" data-name="Path 2-2" d="M612.3,176.047c-2.832,0-4.549,2.151-4.549,4.868a4.184,4.184,0,0,0,4.549,4.417,4.4,4.4,0,0,0,2.983-1.057v-2.341H611.9V179.7h5.659v5.568a6.581,6.581,0,0,1-5.266,2.378c-4.965,0-6.984-3.266-6.984-6.739,0-3.718,2.322-7.155,6.984-7.155a6.979,6.979,0,0,1,4.908,2.02l-1.548,1.585A5.062,5.062,0,0,0,612.3,176.047Z" transform="translate(-591.685 -173.756)" fill="#1985c7"/>
      <path id="Path_3-2" data-name="Path 3-2" d="M648.056,187.926l-3.854-4.417h-2.4v4.417h-2.491V174.7c2.1,0,4.19.019,6.288.019,3.115.019,4.757,2.1,4.757,4.38a3.921,3.921,0,0,1-3.341,4.154l4,4.511v.169Zm-6.248-6.664H645.6a2.119,2.119,0,0,0,.278-4.228,2.222,2.222,0,0,0-.278,0h-3.794Z" transform="translate(-612.507 -174.333)" fill="#1985c7"/>
      <path id="Path_4-2" data-name="Path 4-2" d="M681.775,180.909c0,3.454-2.1,6.928-6.778,6.928-4.643,0-6.8-3.341-6.8-6.815s2.231-6.965,6.8-6.965a6.557,6.557,0,0,1,6.78,6.326C681.784,180.558,681.783,180.734,681.775,180.909Zm-11.118.019c0,2.19,1.151,4.625,4.341,4.625,3.172,0,4.323-2.416,4.323-4.606,0-2.208-1.246-4.625-4.323-4.625-3.057,0-4.34,2.4-4.34,4.609Z" transform="translate(-630.2 -173.938)" fill="#1985c7"/>
    </g>
  </g>
  <g id="ONLINE-2" transform="translate(90.272 13.494)">
    <g id="Group_2-2" data-name="Group 2-2">
      <path id="Path_5-2" data-name="Path 5-2" d="M725.846,176.2a7.023,7.023,0,0,1,1.746,4.833,7.575,7.575,0,0,1-.425,2.53,7.09,7.09,0,0,1-1.227,2.18,5.614,5.614,0,0,1-2.1,1.548,7.846,7.846,0,0,1-5.9,0,5.6,5.6,0,0,1-2.115-1.548,7.106,7.106,0,0,1-1.225-2.17,7.531,7.531,0,0,1-.425-2.536,6.9,6.9,0,0,1,1.841-4.908,6.4,6.4,0,0,1,4.9-1.964A6.263,6.263,0,0,1,725.846,176.2Zm-.406,2.256a4.665,4.665,0,0,0-1.708-1.973,5.052,5.052,0,0,0-2.822-.811,4.716,4.716,0,0,0-3.753,1.539,6.033,6.033,0,0,0-.019,7.56,4.69,4.69,0,0,0,3.775,1.548,4.585,4.585,0,0,0,3.737-1.567,5.63,5.63,0,0,0,1.3-3.718A6.017,6.017,0,0,0,725.44,178.452Z" transform="translate(-714.167 -174.155)" fill="#01c874"/>
      <path id="Path_6-2" data-name="Path 6-2" d="M754.444,174.746l8.1,10.118V174.746h1.623v13.213h-1.133l-8.114-10.08v10.08H753.3V174.746Z" transform="translate(-738.13 -174.517)" fill="#01c874"/>
      <path id="Path_7-2" data-name="Path 7-2" d="M789.614,186.43h7.192v1.529h-8.834V174.746h1.642Z" transform="translate(-759.367 -174.517)" fill="#01c874"/>
      <path id="Path_8-2" data-name="Path 8-2" d="M813.738,174.746h1.642v13.213h-1.642Z" transform="translate(-775.147 -174.517)" fill="#01c874"/>
      <path id="Path_9-2" data-name="Path 9-2" d="M825.756,174.746l8.1,10.118V174.746h1.623v13.213h-1.133l-8.114-10.08v10.08h-1.623V174.746Z" transform="translate(-781.804 -174.517)" fill="#01c874"/>
      <path id="Path_10-2" data-name="Path 10-2" d="M859.281,174.746h9.288v1.514H860.9v4.134h7.343v1.529H860.9V186.4h7.966v1.566h-9.589Z" transform="translate(-803.039 -174.517)" fill="#01c874"/>
    </g>
  </g>
</svg>
